<svg height="16" viewBox="0 0 16 16" width="16" xmlns="http://www.w3.org/2000/svg">
  <g fill="none" fill-rule="evenodd" transform="translate(2.5 .5)">
    <polygon stroke="#000" stroke-width="1.061" points="0 0 0 14.898 11.423 14.898 11.423 4.339 6.944 0"/>
    <polyline stroke="#000" stroke-width="1.061" points="6.944 0 6.944 4.339 11.423 4.339"/>
    <polygon fill="#000" points="5.297 12.129 9.443 12.129 9.443 13.189 5.297 13.189"/>
    <path fill="#000" d="M1.86875035,7.65535694 L5.45144257,9.28392832 C5.45144257,9.87678545 5.45144257,10.173214 5.45144257,10.173214 C5.45144257,10.173214 1.86875035,11.9464283 1.86875035,11.9464283 C1.86875035,11.9464283 1.86875035,10.7785711 1.86875035,10.7785711 C1.86875035,10.7785711 2.66121828,10.4285711 4.24615413,9.72857117 L1.86875035,8.82321405 L1.86875035,7.65535694 Z"/>
  </g>
</svg>
